<svg id="Lager_1" data-name="Lager 1" xmlns="http://www.w3.org/2000/svg" viewBox="0 0 459.21 257.95"><defs><style>.cls-1{fill:none;}.cls-2{fill:#225267;}</style></defs><rect class="cls-1" width="459.21" height="257.95"/><path class="cls-2" d="M356.8,137.6c5.79,0,11.59,0,17.39,0,.8,0,.93-.15.65-.93-3.51-9.53-7-19.08-10.48-28.62-.23-.54-.54-.49-.63-.19-.37,1-.58,1.53-.94,2.52-3.34,9.17-7.13,19.6-10.41,28.79h-1.83l13.46-37,13.5,37.07H356.76Z"/><path class="cls-2" d="M383.39,129.07c0-6.44,0-12.88,0-19.32,0-.86.14-1.24,1.14-1.2,3.67.15,7.37-.29,11,.54,3.37.78,6.29,2.24,7.71,5.63s1.2,8.84-3.75,11.53c-.81.44-1.62.87-2.38,1.37s-.8-.08-1.06-.46-.3-.74.24-1c.92-.48,1.79-1,2.71-1.54,4.43-2.4,4.49-10.21-.43-12.64a19,19,0,0,0-7.66-1.65c-1.56-.07-3.13,0-4.68-.07-1-.06-1.16.3-1.16,1.2q0,16.14,0,32.27c0,1.68,0,3.36,0,5,0,.67-.16.89-.86.9s-.83-.27-.83-.9C383.4,142.18,383.39,135.62,383.39,129.07Z"/><path class="cls-2" d="M411.23,129.13c0-6.36,0-12.72,0-19.07,0-1.3.38-1.56,1.58-1.51,3.5.16,7-.26,10.51.53,3.24.73,6.06,2.12,7.61,5.25a9.06,9.06,0,0,1-3.64,12c-.69.4-1.4.76-2.08,1.19s-.88.47-1.31-.25,0-.94.5-1.21c.84-.47,1.65-1,2.49-1.44,4.37-2.41,4.43-10.14-.42-12.58a18.6,18.6,0,0,0-7.65-1.68c-1.64-.07-3.28,0-4.92-.06-.82,0-1,.25-1,1,0,4.88,0,9.75,0,14.63q0,11.34,0,22.67c0,.46.24,1-.66,1.09s-1-.3-1-1.09C411.24,142.08,411.23,135.61,411.23,129.13Z"/><path class="cls-2" d="M88.17,117.1c0,6.92,0,13.84,0,20.75a1.76,1.76,0,0,1-1,1.79,11.68,11.68,0,0,1-6.28,1.16c-5.49-.19-10.7-1.71-15.88-3.35-6.38-2-12.73-4.15-19.1-6.21a32.53,32.53,0,0,0-15.4-1,8.82,8.82,0,0,1-4.15-.08,3.29,3.29,0,0,1-2.64-3.57c0-6.52,0-13,0-19.56a2.17,2.17,0,0,1,.85-1.84,6.33,6.33,0,0,1,4.6-1.39c2.15.13,4.29.37,6.43.67,6.22.88,12.14-.58,18-2.28C61.33,100,69,97.52,76.87,95.76a34.61,34.61,0,0,1,8.77-1.09c2.53.09,2.53.08,2.53,2.52Zm-1.69.17c0-6.59,0-13.19,0-19.78,0-.89-.24-1.17-1.14-1.18a34.16,34.16,0,0,0-7.12.88c-7.66,1.6-15.12,3.94-22.59,6.22-7.84,2.4-15.71,3.94-23.93,2.33a10.64,10.64,0,0,0-4.53,0c-1.44.35-1.83.82-1.83,2.29v18.35c0,1.58.67,2.3,2.28,2.39a12.12,12.12,0,0,0,2.62-.13,33.82,33.82,0,0,1,16.11,1c2.92.94,5.85,1.86,8.76,2.83,7.12,2.34,14.16,4.95,21.59,6.22a18.55,18.55,0,0,0,8.67-.09,1.35,1.35,0,0,0,1.11-1.54C86.46,130.47,86.48,123.87,86.48,117.27Z"/><path class="cls-2" d="M46.52,157.28a12.49,12.49,0,0,0-2,0c-1.7.27-3-.53-4.3-1.41a2.12,2.12,0,0,1-.68-.95q-4.14-9-8.3-18.05c-.57-1.23.09-2.43,0-3.65,0-.43.17-.88.14-1.31-.06-.81.33-.88,1-.85s.7.46.63,1c0,.28-.08.55-.12.83a9,9,0,0,0,.83,5.64c2.46,5,4.69,10.13,7,15.2a3.12,3.12,0,0,0,3,1.92c1.84,0,3.69-.12,5.51,0A4,4,0,0,0,53,150.19c-1.84-4.59-3.62-9.2-5.43-13.8a3,3,0,0,1,.72-3.13c.47-.43.7.11,1,.23s.59.46.25.81c-.81.83-.43,1.65-.08,2.52,1.71,4.3,3.35,8.62,5.08,12.91a5.52,5.52,0,0,1-5.17,7.54c-.95-.05-1.92,0-2.88,0Z"/><path class="cls-2" d="M95.71,118.3A9.79,9.79,0,0,1,91.09,126c-.43.29-.82.67-1.22-.1-.3-.57-.43-.84.25-1.3A8.5,8.5,0,0,0,89.8,110c-.78-.48-.56-.83-.28-1.4.38-.75.77-.28,1.15-.06C93.8,110.34,95.7,113.67,95.71,118.3Z"/><path class="cls-2" d="M107.24,126.08c0,.78-.44,1.14-1.32.86-2.77-.85-5.53-1.73-8.31-2.57-.65-.2-.88-.46-.64-1.18s.57-.65,1.14-.47c2.79.9,5.6,1.77,8.4,2.65C106.82,125.47,107.27,125.43,107.24,126.08Z"/><path class="cls-2" d="M97.51,112.14c-.54,0-.44-.56-.57-.88s-.22-.65.32-.82c3-.91,6-1.85,9-2.82.76-.25.73.33.9.73s0,.78-.5.94c-2.43.73-4.86,1.49-7.29,2.25Z"/><path class="cls-2" d="M102.35,118.15c-1.52,0-3,0-4.55,0-.7,0-.87-.24-.88-.9s.27-.79.85-.79c3,0,6.07,0,9.1,0,.56,0,.89.06.85.76s-.06,1-.82.93C105.39,118.11,103.87,118.15,102.35,118.15Z"/><path class="cls-2" d="M128.22,124.74v14.75a35,35,0,0,1-6.79,0V103.08H141a29.4,29.4,0,0,1,0,6.36H128.22v9H140a27.74,27.74,0,0,1,0,6.31Z"/><path class="cls-2" d="M166.31,127.86a125.34,125.34,0,0,1-14.3,0v1.35c0,3.82,1.91,4.52,5.92,4.52a29.67,29.67,0,0,0,7.31-.86,36.24,36.24,0,0,1,0,6.25,43.18,43.18,0,0,1-8.94,1c-6.71,0-10.94-2.32-10.94-9.16V120.21c0-7.16,4.47-9.26,10.66-9.26s10.29,3,10.29,10.72Zm-6.52-6.52c0-3.66-1.82-4.09-3.86-4.09s-3.92.43-3.92,4.09v2.1l3.59-.27h4.19Z"/><path class="cls-2" d="M191.91,127.86a125.18,125.18,0,0,1-14.29,0v1.35c0,3.82,1.91,4.52,5.91,4.52a29.55,29.55,0,0,0,7.31-.86,34.34,34.34,0,0,1,0,6.25,43.1,43.1,0,0,1-8.94,1c-6.7,0-10.94-2.32-10.94-9.16V120.21c0-7.16,4.47-9.26,10.66-9.26s10.29,3,10.29,10.72Zm-6.51-6.52c0-3.66-1.82-4.09-3.87-4.09s-3.91.43-3.91,4.09v2.1l3.59-.27h4.19Z"/><path class="cls-2" d="M212.3,135.62h-.23c-.88,3.39-3.72,4.52-7.54,4.52-4.52,0-7.91-2.15-7.91-8.13V119.08c0-6,3.39-8.13,7.91-8.13,3.82,0,6.66,1.18,7.54,4.58h.23L212,111V100.87a27.4,27.4,0,0,1,6.65,0V139.6a26.54,26.54,0,0,1-5.91,0ZM212,121.34c-.84-3-1.82-3.82-4.75-3.82-2.33,0-4,.59-4,5v6c0,4.36,1.68,5,4,5,2.93,0,3.91-.81,4.75-3.83Z"/><path class="cls-2" d="M247,132c0,6-3.45,8.13-8,8.13-3.81,0-6.61-1.13-7.49-4.52h-.28l-.42,4a26.54,26.54,0,0,1-5.91,0V100.87a27.48,27.48,0,0,1,6.66,0V111l-.33,4.58h.28c.88-3.4,3.68-4.58,7.49-4.58,4.52,0,8,2.15,8,8.13Zm-6.66-9.48c0-4.42-1.68-5-4-5-2.89,0-3.87.81-4.7,3.82v8.35c.83,3,1.81,3.83,4.7,3.83,2.37,0,4-.6,4-5Z"/><path class="cls-2" d="M266.59,135.62h-.28c-.75,3.28-3.63,4.52-7.36,4.52-4.37,0-7.77-2.21-7.77-8,0-7.49,3.63-9.11,8.75-9.11a42.25,42.25,0,0,1,6.33.54v-2c0-2.75-1.39-4.31-6.19-4.31a36.05,36.05,0,0,0-6.89.75,27.4,27.4,0,0,1,0-6.14,40.78,40.78,0,0,1,8.89-.91c7.17,0,10.85,2.31,10.85,8.88v19.93a21.66,21.66,0,0,1-5.91,0Zm-.33-7.28a21.89,21.89,0,0,0-4.14-.53c-2.7,0-4.24.37-4.24,3.34,0,2.74,1.63,3.12,3.63,3.12,2.52,0,3.82-.86,4.75-3Z"/><path class="cls-2" d="M278,120.05c0-7,4.1-9.1,10.29-9.1a32.08,32.08,0,0,1,7.35.75,28.18,28.18,0,0,1,0,6.36,26.72,26.72,0,0,0-6-.65c-2.56,0-4.93.49-4.93,4.26v7.75c0,3.72,2.37,4.2,4.93,4.2a21.91,21.91,0,0,0,6-.8,27.65,27.65,0,0,1,0,6.3,27.56,27.56,0,0,1-7.35,1c-6.24,0-10.29-2.32-10.29-9Z"/><path class="cls-2" d="M309.47,127.16l-2.33.38v12a27.48,27.48,0,0,1-6.66,0V100.87a27.48,27.48,0,0,1,6.66,0V121l2.61-.44,5.86-9.15a31.84,31.84,0,0,1,7.17,0L315,123.71l8.15,15.78a32.64,32.64,0,0,1-7.26,0Z"/><path class="cls-2" d="M151.42,170.83l-1.7-5.43c-.11-.34-.31-1.09-.6-2.27h-.07c-.22,1-.42,1.75-.59,2.28l-1.75,5.42h-1.62l-2.52-9.26H144c.59,2.33,1.05,4.1,1.36,5.31a24.07,24.07,0,0,1,.54,2.46H146c.07-.32.17-.74.3-1.25s.26-.91.36-1.21l1.7-5.31h1.52l1.66,5.31a20,20,0,0,1,.64,2.44h.06c0-.2.09-.51.19-.93s.68-2.7,1.76-6.82h1.45l-2.56,9.26Z"/><path class="cls-2" d="M164.81,170.83l-1.69-5.43c-.11-.34-.31-1.09-.6-2.27h-.07c-.22,1-.42,1.75-.59,2.28l-1.75,5.42h-1.62L156,161.57h1.47c.59,2.33,1.05,4.1,1.36,5.31a24.07,24.07,0,0,1,.54,2.46h.06c.06-.32.16-.74.3-1.25s.26-.91.36-1.21l1.7-5.31h1.52l1.65,5.31a16.88,16.88,0,0,1,.64,2.44h.07c0-.2.09-.51.18-.93s.69-2.7,1.76-6.82H169l-2.56,9.26Z"/><path class="cls-2" d="M178.21,170.83l-1.69-5.43c-.11-.34-.31-1.09-.6-2.27h-.07c-.23,1-.42,1.75-.59,2.28l-1.75,5.42h-1.62l-2.53-9.26h1.47c.6,2.33,1,4.1,1.37,5.31a20.75,20.75,0,0,1,.53,2.46h.07c.06-.32.16-.74.3-1.25s.26-.91.36-1.21l1.7-5.31h1.52l1.65,5.31a16.88,16.88,0,0,1,.64,2.44H179a7.88,7.88,0,0,1,.18-.93q.15-.64,1.76-6.82h1.45l-2.55,9.26Z"/><path class="cls-2" d="M183.85,169.93a1.28,1.28,0,0,1,.26-.86,1,1,0,0,1,.74-.29,1,1,0,0,1,.76.29,1.23,1.23,0,0,1,.28.86,1.18,1.18,0,0,1-.28.84,1,1,0,0,1-.76.3,1,1,0,0,1-.72-.27A1.16,1.16,0,0,1,183.85,169.93Z"/><path class="cls-2" d="M192.77,162.66h-2.35v8.17H189v-8.17h-1.66V162l1.66-.51V161c0-2.28,1-3.41,3-3.41a6,6,0,0,1,1.72.29l-.36,1.12a4.82,4.82,0,0,0-1.39-.26,1.34,1.34,0,0,0-1.17.53,3,3,0,0,0-.38,1.69v.6h2.35Z"/><path class="cls-2" d="M198.32,171a4.23,4.23,0,0,1-3.24-1.25,4.82,4.82,0,0,1-1.18-3.47,5.33,5.33,0,0,1,1.1-3.55,3.65,3.65,0,0,1,3-1.32,3.47,3.47,0,0,1,2.75,1.15,4.36,4.36,0,0,1,1,3v.88h-6.37a3.7,3.7,0,0,0,.82,2.48,2.86,2.86,0,0,0,2.2.84,7.59,7.59,0,0,0,3-.62v1.24a7,7,0,0,1-1.41.46A7.37,7.37,0,0,1,198.32,171Zm-.38-8.41a2.31,2.31,0,0,0-1.78.72,3.4,3.4,0,0,0-.78,2h4.84a3.11,3.11,0,0,0-.59-2A2.09,2.09,0,0,0,197.94,162.58Z"/><path class="cls-2" d="M208,171a4.23,4.23,0,0,1-3.24-1.25,4.82,4.82,0,0,1-1.18-3.47,5.33,5.33,0,0,1,1.1-3.55,3.65,3.65,0,0,1,3-1.32,3.47,3.47,0,0,1,2.75,1.15,4.41,4.41,0,0,1,1,3v.88H205a3.7,3.7,0,0,0,.82,2.48,2.85,2.85,0,0,0,2.2.84,7.59,7.59,0,0,0,3-.62v1.24a7,7,0,0,1-1.41.46A7.43,7.43,0,0,1,208,171Zm-.38-8.41a2.31,2.31,0,0,0-1.78.72,3.4,3.4,0,0,0-.78,2h4.84a3.11,3.11,0,0,0-.59-2A2.09,2.09,0,0,0,207.59,162.58Z"/><path class="cls-2" d="M220,169.58h-.08A3.29,3.29,0,0,1,217,171a3.45,3.45,0,0,1-2.83-1.24,5.46,5.46,0,0,1-1-3.53,5.52,5.52,0,0,1,1-3.55A3.41,3.41,0,0,1,217,161.4a3.36,3.36,0,0,1,2.88,1.37H220l-.05-.67,0-.65v-3.76h1.4v13.14h-1.14Zm-2.81.24a2.57,2.57,0,0,0,2.09-.78,4,4,0,0,0,.64-2.52v-.3a4.67,4.67,0,0,0-.65-2.8,2.5,2.5,0,0,0-2.09-.84,2.17,2.17,0,0,0-1.89.95,4.76,4.76,0,0,0-.65,2.71,4.55,4.55,0,0,0,.65,2.68A2.2,2.2,0,0,0,217.2,169.82Z"/><path class="cls-2" d="M228.56,161.42a3.43,3.43,0,0,1,2.83,1.25,6.65,6.65,0,0,1,0,7.06,3.43,3.43,0,0,1-2.82,1.26,4.05,4.05,0,0,1-1.65-.33,3,3,0,0,1-1.25-1h-.11l-.29,1.19h-1V157.69h1.41v3.19c0,.71,0,1.36-.07,1.92h.07A3.32,3.32,0,0,1,228.56,161.42Zm-.2,1.17a2.44,2.44,0,0,0-2.07.83,4.65,4.65,0,0,0-.63,2.77,4.58,4.58,0,0,0,.65,2.79,2.45,2.45,0,0,0,2.08.84,2.17,2.17,0,0,0,1.93-.94,4.87,4.87,0,0,0,.63-2.71,4.66,4.66,0,0,0-.63-2.69A2.26,2.26,0,0,0,228.36,162.59Z"/><path class="cls-2" d="M240.49,170.83l-.28-1.32h-.07a3.92,3.92,0,0,1-1.38,1.18,4.31,4.31,0,0,1-1.72.3,3.09,3.09,0,0,1-2.15-.7,2.61,2.61,0,0,1-.78-2q0-2.81,4.48-2.94l1.57-.05v-.58a2.33,2.33,0,0,0-.47-1.6,1.91,1.91,0,0,0-1.5-.52,6,6,0,0,0-2.62.71l-.43-1.08a7.08,7.08,0,0,1,1.5-.58,6.59,6.59,0,0,1,1.64-.21,3.52,3.52,0,0,1,2.45.73,3.09,3.09,0,0,1,.8,2.36v6.32Zm-3.17-1a2.86,2.86,0,0,0,2.06-.72,2.65,2.65,0,0,0,.74-2v-.84l-1.4.06a5.23,5.23,0,0,0-2.41.52,1.58,1.58,0,0,0-.74,1.43,1.46,1.46,0,0,0,.46,1.16A1.9,1.9,0,0,0,237.32,169.84Z"/><path class="cls-2" d="M248.06,171a4,4,0,0,1-3.11-1.23,5.07,5.07,0,0,1-1.1-3.5,5.22,5.22,0,0,1,1.12-3.59,4,4,0,0,1,3.18-1.27,6.12,6.12,0,0,1,1.34.15,4.56,4.56,0,0,1,1,.33l-.43,1.19a6.68,6.68,0,0,0-1-.3,4.12,4.12,0,0,0-1-.13q-2.82,0-2.82,3.6a4.28,4.28,0,0,0,.69,2.62,2.39,2.39,0,0,0,2,.91,6.27,6.27,0,0,0,2.37-.5v1.24A5.08,5.08,0,0,1,248.06,171Z"/><path class="cls-2" d="M253.93,166.09c.24-.34.61-.79,1.1-1.35l3-3.17h1.67l-3.75,3.94,4,5.32h-1.7L255,166.45l-1,.91v3.47h-1.39V157.69h1.39v7c0,.31,0,.79-.07,1.44Z"/><path class="cls-2" d="M267.26,170.83l-.28-1.32h-.07a3.92,3.92,0,0,1-1.38,1.18,4.31,4.31,0,0,1-1.72.3,3.09,3.09,0,0,1-2.15-.7,2.58,2.58,0,0,1-.79-2q0-2.81,4.49-2.94l1.57-.05v-.58a2.33,2.33,0,0,0-.47-1.6,1.91,1.91,0,0,0-1.5-.52,6,6,0,0,0-2.62.71l-.43-1.08a7.08,7.08,0,0,1,1.5-.58,6.51,6.51,0,0,1,1.63-.21,3.53,3.53,0,0,1,2.46.73,3.09,3.09,0,0,1,.8,2.36v6.32Zm-3.17-1a2.86,2.86,0,0,0,2.06-.72,2.65,2.65,0,0,0,.74-2v-.84l-1.4.06a5.23,5.23,0,0,0-2.41.52,1.58,1.58,0,0,0-.74,1.43,1.46,1.46,0,0,0,.46,1.16A1.9,1.9,0,0,0,264.09,169.84Z"/><path class="cls-2" d="M275.44,171a4,4,0,0,1-1.65-.33,3.1,3.1,0,0,1-1.26-1h-.1a11.89,11.89,0,0,1,.1,1.53V175h-1.4V161.57h1.14l.2,1.27h.06a3.27,3.27,0,0,1,1.26-1.1,3.92,3.92,0,0,1,1.65-.34,3.43,3.43,0,0,1,2.84,1.26,6.69,6.69,0,0,1,0,7.07A3.43,3.43,0,0,1,275.44,171Zm-.21-8.4a2.48,2.48,0,0,0-2.05.79,4,4,0,0,0-.65,2.5v.31a4.65,4.65,0,0,0,.65,2.79,2.49,2.49,0,0,0,2.09.84,2.17,2.17,0,0,0,1.88-1,4.64,4.64,0,0,0,.68-2.68,4.43,4.43,0,0,0-.68-2.65A2.24,2.24,0,0,0,275.23,162.59Z"/><path class="cls-2" d="M286,171a4.05,4.05,0,0,1-1.65-.33,3,3,0,0,1-1.25-1H283a14,14,0,0,1,.1,1.53V175h-1.4V161.57h1.14l.19,1.27h.07a3.31,3.31,0,0,1,1.25-1.1,3.92,3.92,0,0,1,1.65-.34,3.4,3.4,0,0,1,2.84,1.26,6.72,6.72,0,0,1,0,7.07A3.44,3.44,0,0,1,286,171Zm-.2-8.4a2.45,2.45,0,0,0-2,.79,4,4,0,0,0-.65,2.5v.31a4.58,4.58,0,0,0,.65,2.79,2.47,2.47,0,0,0,2.08.84,2.16,2.16,0,0,0,1.88-1,4.64,4.64,0,0,0,.68-2.68,4.43,4.43,0,0,0-.68-2.65A2.23,2.23,0,0,0,285.78,162.59Z"/><path class="cls-2" d="M292,169.93a1.23,1.23,0,0,1,.26-.86.93.93,0,0,1,.73-.29,1,1,0,0,1,.77.29,1.23,1.23,0,0,1,.27.86,1.14,1.14,0,0,1-.28.84,1,1,0,0,1-.76.3,1,1,0,0,1-.71-.27A1.12,1.12,0,0,1,292,169.93Z"/><path class="cls-2" d="M302.74,168.3a2.31,2.31,0,0,1-1,2,4.55,4.55,0,0,1-2.71.7,5.88,5.88,0,0,1-2.87-.58v-1.3a6.78,6.78,0,0,0,1.43.53,6,6,0,0,0,1.48.2,3.41,3.41,0,0,0,1.69-.35,1.21,1.21,0,0,0,.12-2,7.59,7.59,0,0,0-1.83-.9,10.13,10.13,0,0,1-1.84-.84,2.53,2.53,0,0,1-.81-.82,2.2,2.2,0,0,1-.26-1.09,2.07,2.07,0,0,1,.92-1.78,4.24,4.24,0,0,1,2.52-.66,7.46,7.46,0,0,1,2.92.61l-.49,1.14a6.75,6.75,0,0,0-2.53-.57,2.89,2.89,0,0,0-1.5.31,1,1,0,0,0-.51.86,1.07,1.07,0,0,0,.19.63,1.88,1.88,0,0,0,.61.5,14.22,14.22,0,0,0,1.63.69,6.23,6.23,0,0,1,2.22,1.2A2.13,2.13,0,0,1,302.74,168.3Z"/><path class="cls-2" d="M308,169.84a4.2,4.2,0,0,0,.72-.06,3.51,3.51,0,0,0,.55-.11v1.07a2.7,2.7,0,0,1-.67.18,4.81,4.81,0,0,1-.8.07c-1.79,0-2.68-.94-2.68-2.82v-5.51h-1.33V162l1.33-.59.59-2h.81v2.14h2.68v1.09h-2.68v5.45a1.85,1.85,0,0,0,.4,1.28A1.35,1.35,0,0,0,308,169.84Z"/><path class="cls-2" d="M319,166.19a5.08,5.08,0,0,1-1.14,3.53,4,4,0,0,1-3.15,1.27,4.19,4.19,0,0,1-2.21-.58,3.83,3.83,0,0,1-1.48-1.67,5.84,5.84,0,0,1-.53-2.55,5.05,5.05,0,0,1,1.14-3.52,4,4,0,0,1,3.14-1.27,3.91,3.91,0,0,1,3.08,1.29A5.12,5.12,0,0,1,319,166.19Zm-7.05,0a4.34,4.34,0,0,0,.71,2.7,2.44,2.44,0,0,0,2.08.93,2.48,2.48,0,0,0,2.09-.92,4.36,4.36,0,0,0,.71-2.71,4.26,4.26,0,0,0-.71-2.68,2.51,2.51,0,0,0-2.11-.92,2.44,2.44,0,0,0-2.07.91A4.32,4.32,0,0,0,312,166.19Z"/><path class="cls-2" d="M325.63,161.4a6.18,6.18,0,0,1,1.11.1l-.2,1.3a5,5,0,0,0-1-.12,2.45,2.45,0,0,0-1.92.91,3.33,3.33,0,0,0-.8,2.27v5h-1.4v-9.26h1.16l.16,1.72h.07a4,4,0,0,1,1.24-1.4A2.82,2.82,0,0,1,325.63,161.4Z"/><path class="cls-2" d="M332.33,171a4.23,4.23,0,0,1-3.24-1.25,4.82,4.82,0,0,1-1.19-3.47,5.38,5.38,0,0,1,1.1-3.55,3.68,3.68,0,0,1,3-1.32,3.49,3.49,0,0,1,2.76,1.15,4.41,4.41,0,0,1,1,3v.88h-6.38a3.71,3.71,0,0,0,.83,2.48,2.85,2.85,0,0,0,2.2.84,7.55,7.55,0,0,0,2.95-.62v1.24a6.72,6.72,0,0,1-1.4.46A7.49,7.49,0,0,1,332.33,171Zm-.38-8.41a2.29,2.29,0,0,0-1.78.72,3.4,3.4,0,0,0-.78,2h4.84a3.11,3.11,0,0,0-.59-2A2.09,2.09,0,0,0,332,162.58Z"/><rect class="cls-2" x="335.32" y="95.51" width="2.17" height="50.26"/></svg>